<?xml version="1.0" encoding="UTF-8"?>
<!DOCTYPE svg PUBLIC "-//W3C//DTD SVG 1.1//EN" "http://www.w3.org/Graphics/SVG/1.1/DTD/svg11.dtd">
<!-- Creator: CorelDRAW X7 -->
<svg xmlns="http://www.w3.org/2000/svg" xml:space="preserve" width="512px" height="512px" version="1.1" style="shape-rendering:geometricPrecision; text-rendering:geometricPrecision; image-rendering:optimizeQuality; fill-rule:evenodd; clip-rule:evenodd"
viewBox="0 0 512 512"
 xmlns:xlink="http://www.w3.org/1999/xlink">
 <defs>
  <style type="text/css">
   <![CDATA[
    .fil1 {fill:#79B8E4}
    .fil0 {fill:#E7E6E9}
   ]]>
  </style>
 </defs>
 <g id="Layer_x0020_1">
  <metadata id="CorelCorpID_0Corel-Layer"/>
  <g id="_531261552">
   <path class="fil0" d="M298 34c74,0 134,60 134,134 0,4 0,8 0,12 45,5 80,43 80,89 0,49 -40,89 -89,89l0 0 -324 0 0 0c-54,0 -99,-45 -99,-100 0,-42 26,-77 63,-92 5,-37 37,-65 76,-65 13,0 26,4 37,10 22,-46 68,-77 122,-77z"/>
   <path class="fil1" d="M144 383c9,0 16,7 16,16 0,9 -7,16 -16,16 -8,0 -16,-7 -16,-16 0,-9 8,-16 16,-16zm249 0c8,0 16,7 16,16 0,9 -8,16 -16,16 -9,0 -16,-7 -16,-16 0,-9 7,-16 16,-16zm-64 63c9,0 16,7 16,16 0,9 -7,16 -16,16 -9,0 -16,-7 -16,-16 0,-9 7,-16 16,-16zm-60 -63c8,0 15,7 15,16 0,9 -7,16 -15,16 -9,0 -16,-7 -16,-16 0,-9 7,-16 16,-16zm-188 63c9,0 16,7 16,16 0,9 -7,16 -16,16 -9,0 -16,-7 -16,-16 0,-9 7,-16 16,-16zm124 0c9,0 16,7 16,16 0,9 -7,16 -16,16 -9,0 -16,-7 -16,-16 0,-9 7,-16 16,-16z"/>
  </g>
 </g>
</svg>
