<?xml version="1.0" encoding="UTF-8"?>
<!DOCTYPE svg PUBLIC "-//W3C//DTD SVG 1.1//EN" "http://www.w3.org/Graphics/SVG/1.1/DTD/svg11.dtd">
<!-- Creator: CorelDRAW X7 -->
<svg xmlns="http://www.w3.org/2000/svg" xml:space="preserve" width="512px" height="512px" version="1.1" style="shape-rendering:geometricPrecision; text-rendering:geometricPrecision; image-rendering:optimizeQuality; fill-rule:evenodd; clip-rule:evenodd"
viewBox="0 0 512 512"
 xmlns:xlink="http://www.w3.org/1999/xlink">
 <defs>
  <style type="text/css">
   <![CDATA[
    .fil1 {fill:#79B8E4}
    .fil0 {fill:#E7E6E9}
   ]]>
  </style>
 </defs>
 <g id="Layer_x0020_1">
  <metadata id="CorelCorpID_0Corel-Layer"/>
  <g id="_531215408">
   <path class="fil0" d="M298 34c74,0 134,60 134,134 0,4 0,8 0,12 45,4 80,42 80,89 0,49 -40,88 -89,88l0 0 -324 0 0 0c-54,0 -99,-44 -99,-99 0,-42 26,-78 63,-92 5,-37 37,-65 76,-65 13,0 26,3 37,10 22,-46 68,-77 122,-77z"/>
   <g>
    <rect class="fil1" transform="matrix(-0.248582 -0.124369 -0.124369 0.248582 184.53 391.391)" width="113" height="372" rx="56" ry="56"/>
    <rect class="fil1" transform="matrix(-0.248582 -0.124369 -0.124369 0.248582 293.108 391.391)" width="113" height="372" rx="56" ry="56"/>
    <rect class="fil1" transform="matrix(-0.248582 -0.124369 -0.124369 0.248582 401.685 391.391)" width="113" height="372" rx="56" ry="56"/>
   </g>
  </g>
 </g>
</svg>
