<?xml version="1.0" encoding="UTF-8"?>
<!DOCTYPE svg PUBLIC "-//W3C//DTD SVG 1.1//EN" "http://www.w3.org/Graphics/SVG/1.1/DTD/svg11.dtd">
<!-- Creator: CorelDRAW X7 -->
<svg xmlns="http://www.w3.org/2000/svg" xml:space="preserve" width="512px" height="512px" version="1.1" style="shape-rendering:geometricPrecision; text-rendering:geometricPrecision; image-rendering:optimizeQuality; fill-rule:evenodd; clip-rule:evenodd"
viewBox="0 0 512 512"
 xmlns:xlink="http://www.w3.org/1999/xlink">
 <defs>
  <style type="text/css">
   <![CDATA[
    .fil1 {fill:#E3C937}
    .fil0 {fill:#FBDF3C}
    .fil2 {fill:white;fill-rule:nonzero}
   ]]>
  </style>
 </defs>
 <g id="Layer_x0020_1">
  <metadata id="CorelCorpID_0Corel-Layer"/>
  <g id="_294747520">
   <circle class="fil0" cx="256" cy="256" r="256"/>
   <path class="fil1" d="M360 490l-124 -84 51 0 0 -47 -51 -38 42 0 0 -1 0 -1 0 -1 0 -1 0 -2 0 -1 0 -1 0 -1 0 -1 0 -1 1 -1 0 -1 0 -1 0 0 0 -1 0 -1 0 -1 0 -1 0 0 0 -1 0 -1 -124 -96 48 8 0 -4 1 -3 0 -4 1 -3 1 -4 1 -3 1 -3 1 -3 1 -3 1 -3 1 -2 2 -3 1 -2 2 -2 1 -2 2 -2 2 -2 1 -2 2 -2 2 -1 2 -1 2 -2 2 -1 2 -1 3 -1 2 -1 2 0 3 -1 2 0 3 -1 3 0 2 0 2 0 1 0 1 0 1 0 1 1 1 0 1 0 2 0 1 0 1 0 1 1 1 0 1 0 1 0 1 1 1 0 1 1 1 0 1 0 1 1 1 0 0 1 1 0 1 1 1 0 1 1 1 1 1 0 0 1 1 1 66 59 0 0 1 -1 0 -1 0 -1 1 -1 0 -1 0 -1 1 -1 0 -1 0 -2 1 -1 0 -1 0 -1 0 -1 0 -1 1 -1 0 -1 0 -1 0 -1 0 -1 0 -2 0 -1 0 -1 1 -1 0 -1 0 -1 0 -1 0 -1 0 -3 0 -2 -1 -2 0 -2 0 -3 0 -2 -1 -2 0 -2 -1 -2 0 -2 -1 -2 0 -2 -1 -2 -1 -2 0 -2 -1 -2 -1 -2 -1 -2 -1 -2 -1 -2 -1 -1 -1 -2 -1 -2 -2 -2 -1 -1 -1 -2 -2 -2 -1 -1 -2 -2 -1 -2 -2 -1 177 170c-15,84 -72,154 -148,188z"/>
   <path class="fil2" d="M278 321l-42 0 0 -29c0,-10 2,-18 6,-23 4,-6 12,-14 26,-24 20,-16 31,-33 31,-50 0,-14 -4,-24 -12,-32 -8,-8 -19,-12 -32,-12 -29,0 -47,21 -52,62l-48 -8c3,-31 15,-55 35,-73 19,-18 43,-26 71,-26 28,0 50,8 69,24 18,17 27,37 27,62 0,12 -3,23 -8,34 -5,11 -10,20 -17,26 -6,6 -20,16 -40,31 -6,4 -10,8 -11,12 -2,4 -3,13 -3,26zm9 31l0 54 -51 0 0 -54 51 0z"/>
  </g>
 </g>
</svg>
